<svg xmlns="http://www.w3.org/2000/svg" viewBox="0 0 32 32" fill="none">
  <defs>
    <linearGradient id="bg" x1="0" y1="0" x2="1" y2="1">
      <stop offset="0%" stop-color="#818cf8"/>
      <stop offset="50%" stop-color="#6366f1"/>
      <stop offset="100%" stop-color="#4f46e5"/>
    </linearGradient>
    <linearGradient id="shine" x1="0" y1="0" x2="0.5" y2="1">
      <stop offset="0%" stop-color="#a5b4fc" stop-opacity="0.6"/>
      <stop offset="100%" stop-color="#4f46e5" stop-opacity="0"/>
    </linearGradient>
    <filter id="glow">
      <feDropShadow dx="0" dy="1" stdDeviation="1.5" flood-color="#4f46e5" flood-opacity="0.4"/>
    </filter>
  </defs>
  <rect x="2" y="4" width="28" height="24" rx="6" fill="url(#bg)"/>
  <rect x="2" y="4" width="28" height="24" rx="6" fill="url(#shine)"/>
  <path d="M16 6 L26 11 L26 18 C26 24.5 21.5 28 16 29 C10.5 28 6 24.5 6 18 L6 11 Z" fill="url(#bg)" filter="url(#glow)"/>
  <path d="M16 6 L26 11 L26 18 C26 24.5 21.5 28 16 29 C10.5 28 6 24.5 6 18 L6 11 Z" fill="url(#shine)"/>
  <path d="M12 17 L15 20 L20 13" stroke="white" stroke-width="2.5" stroke-linecap="round" stroke-linejoin="round"/>
</svg>
